<svg version="1.1" id="Layer_1" xmlns="http://www.w3.org/2000/svg" xmlns:xlink="http://www.w3.org/1999/xlink" x="0px" y="0px"
	 width="100%" viewBox="0 0 486 482" enable-background="new 0 0 486 482" xml:space="preserve">
<path fill="#FFFFFF" opacity="1.000000" stroke="none" 
	d="
M274.000000,483.000000 
	C183.041382,483.000000 92.082771,483.000000 1.062078,483.000000 
	C1.062078,322.447815 1.062078,161.895584 1.062078,1.000000 
	C69.687180,1.000000 138.374939,1.000000 207.663040,1.336881 
	C223.795654,7.919006 239.334747,14.147271 254.858734,20.413004 
	C287.869812,33.736801 320.861298,47.109390 353.919464,60.315163 
	C355.336487,60.881229 358.011505,60.636551 358.965240,59.660397 
	C367.952881,50.461189 376.336182,48.685051 388.219788,53.900459 
	C390.811951,50.769035 393.422943,47.640156 396.006775,44.488998 
	C405.254639,33.210388 414.596039,22.005785 423.662506,10.583045 
	C425.905640,7.756943 427.245117,4.213627 429.000000,0.999999 
	C448.306122,1.000000 467.612213,1.000000 487.000000,1.000000 
	C487.000000,85.020874 487.000000,169.041779 486.642365,253.375824 
	C485.188629,247.860977 484.098145,242.031937 482.994965,236.205276 
	C481.542816,228.535446 480.140411,220.855560 478.610809,213.201141 
	C475.108368,195.673859 471.504852,178.166763 468.010712,160.637833 
	C463.879791,139.914291 459.850586,119.170502 455.721954,98.446518 
	C451.849670,79.009262 447.947906,59.577637 443.975677,40.160606 
	C441.776062,29.408306 439.405426,18.690987 437.015930,7.707445 
	C436.576019,7.623997 436.232056,7.791002 435.579193,8.092313 
	C421.405640,25.153107 407.540955,42.079594 393.735077,58.934254 
	C401.350983,67.604034 402.663177,79.725670 394.221497,87.509964 
	C387.555145,93.657173 388.673889,98.610863 390.999054,105.070160 
	C391.327576,105.982826 391.631958,106.904518 391.932281,107.826988 
	C396.600861,122.166550 401.341797,136.483109 405.916931,150.852448 
	C413.687592,175.257904 421.306519,199.711929 429.194794,224.079010 
	C429.612152,225.368240 431.881592,226.773758 433.380402,226.884445 
	C446.040833,227.819214 455.502319,237.157410 456.138489,250.271698 
	C456.400177,250.628326 456.690002,250.730835 457.389832,250.905243 
	C463.594452,252.303238 469.353943,253.821899 475.196075,254.887527 
	C479.069489,255.594055 483.061218,255.651810 487.000000,256.000000 
	C487.000000,331.589630 487.000000,407.179230 487.000000,483.000000 
	C419.645935,483.000000 352.291626,483.000000 284.468689,482.578796 
	C284.042053,480.997589 283.849335,479.769928 284.161072,478.687622 
	C289.450378,460.323425 294.723969,441.953644 300.239716,423.657074 
	C300.928436,421.372406 300.986084,420.413849 298.912964,418.880615 
	C293.854919,415.139862 289.470825,410.853912 288.759491,403.882080 
	C288.583099,402.153290 286.442352,399.534729 284.825989,399.210114 
	C266.819397,395.593842 248.734772,392.367554 230.678726,388.995728 
	C216.941895,386.430481 203.217239,383.800110 189.484665,381.212067 
	C178.464645,379.135162 167.459518,376.963806 156.394882,375.158661 
	C155.024643,374.935089 152.704285,376.314819 151.886948,377.618103 
	C147.111679,385.232452 140.632446,389.868744 131.473923,389.923584 
	C128.839676,389.939392 127.809288,390.970184 126.975471,393.248291 
	C123.969307,401.461517 120.775574,409.606140 117.650169,417.775696 
	C114.013931,427.280518 110.375084,436.784332 106.590492,446.672302 
	C108.406273,446.830383 109.717789,446.802765 110.964127,447.074310 
	C129.035828,451.011627 147.063004,455.161377 165.171585,458.919403 
	C198.083679,465.749664 231.054214,472.298431 263.965790,479.131134 
	C267.429016,479.850067 270.660828,481.683563 274.000000,483.000000 
M317.028168,161.002747 
	C317.028168,161.002747 317.089508,160.948441 316.998413,160.284348 
	C316.367523,159.173035 315.736603,158.061737 315.022888,156.226105 
	C314.720367,155.137146 314.417847,154.048172 314.016785,152.163696 
	C312.302002,151.109329 310.702179,149.473083 308.851349,149.107407 
	C302.783447,147.908554 296.628204,147.144257 290.499268,146.263672 
	C282.747070,145.149902 274.982849,144.119003 267.233856,142.984024 
	C264.182434,142.537094 262.582886,143.680145 262.182587,147.241669 
	C262.195862,147.420242 262.209106,147.598801 261.971863,148.343826 
	C258.631042,151.860992 255.290237,155.378174 251.154404,159.019775 
	C247.112457,160.043365 246.497498,162.533722 248.034409,166.883865 
	C248.024078,168.044205 247.899017,169.216751 248.021057,170.363007 
	C249.336105,182.716721 250.470871,195.097427 252.216187,207.391068 
	C252.570282,209.885071 251.476074,214.074692 256.752625,214.967117 
	C257.540375,215.171036 258.474884,215.170212 259.091797,215.612442 
	C262.795868,218.267715 265.390594,217.502579 268.565338,214.116501 
	C280.495483,201.392151 292.794159,189.012909 304.980957,176.529953 
	C308.539093,172.885361 312.258148,169.394806 315.733643,165.675003 
	C316.529572,164.823105 316.624054,163.315826 317.502991,161.913254 
	C317.351990,161.583420 317.200958,161.253586 317.028168,161.002747 
M292.427826,478.102295 
	C292.424042,478.615448 292.420258,479.128601 292.416473,479.641754 
	C292.623779,479.467499 292.831116,479.293274 293.789398,479.016113 
	C295.158661,478.536621 296.693939,478.311005 297.872833,477.540222 
	C323.170715,461.000214 348.407623,444.367004 373.701752,427.821259 
	C390.696716,416.704285 407.783112,405.727051 424.776550,394.607788 
	C427.981171,392.510986 430.940735,390.039642 434.013367,387.741119 
	C433.765930,387.291290 433.518494,386.841431 433.271057,386.391602 
	C429.513885,386.983276 425.756683,387.574951 421.154541,388.023865 
	C412.956177,389.339905 404.776215,390.786713 396.555725,391.945923 
	C376.987335,394.705505 357.388977,397.256042 337.838776,400.135742 
	C336.133118,400.386932 333.633789,402.201477 333.295288,403.695831 
	C330.266754,417.065552 321.385284,422.676453 308.076141,423.312775 
	C303.693329,439.137573 299.286133,455.050476 294.228149,471.340973 
	C293.804382,473.522797 293.380615,475.704590 292.427826,478.102295 
M420.014801,221.170517 
	C417.712677,214.431091 415.410553,207.691650 413.015747,200.222641 
	C412.715668,199.134598 412.415558,198.046539 412.014832,196.170517 
	C409.712708,189.431076 407.410583,182.691635 405.015747,175.222641 
	C404.715668,174.134598 404.415558,173.046539 404.014801,171.170517 
	C401.712677,164.431091 399.410553,157.691650 397.015747,150.222641 
	C396.715668,149.134598 396.415588,148.046539 396.014801,146.170547 
	C394.045990,140.431107 392.077209,134.691666 390.015717,128.222626 
	C389.715637,127.134583 389.415558,126.046539 389.014801,124.170502 
	C386.712677,117.431061 384.410553,110.691612 382.015411,103.141220 
	C381.090332,96.015038 381.090332,96.016426 374.058624,95.998344 
	C373.076447,95.995819 372.094299,95.971840 370.921417,95.452805 
	C370.576843,95.621170 370.232300,95.789536 369.267303,96.277473 
	C363.474518,107.503174 357.681732,118.728867 351.305908,130.231598 
	C351.871796,131.208374 352.437683,132.185165 353.283173,133.780106 
	C355.244324,137.853699 357.205475,141.927307 359.023987,146.849060 
	C359.071533,148.565582 359.119080,150.282089 359.024261,152.787109 
	C358.337128,154.933228 357.536133,157.051697 357.006317,159.235977 
	C356.697205,160.510422 356.245361,162.300385 356.851074,163.151535 
	C359.502045,166.876633 362.274170,170.576385 365.440247,173.863571 
	C379.150330,188.097977 393.017578,202.180908 406.812561,216.333694 
	C407.609161,217.150909 408.223907,218.143539 409.005524,218.977448 
	C412.781067,223.005310 416.584747,227.006775 420.378448,231.017609 
	C420.781921,230.823975 421.185425,230.630356 421.588898,230.436737 
	C421.097778,227.610657 420.606628,224.784576 420.014801,221.170517 
M412.852966,259.491455 
	C412.672028,259.142517 412.396393,259.033936 411.210480,259.040344 
	C389.139526,264.129639 367.068542,269.218903 345.026215,274.301605 
	C345.363678,281.406250 343.628387,287.238007 339.306793,292.192230 
	C335.048492,297.073944 329.836334,300.176575 323.323242,300.358490 
	C321.097839,326.653229 318.905731,352.554382 316.743500,378.102692 
	C320.977386,380.646912 323.330688,380.035614 325.663849,376.107483 
	C328.154633,371.913971 331.774963,368.389160 334.919006,364.586304 
	C343.200897,354.569000 351.565857,344.619385 359.760773,334.531525 
	C370.467010,321.352325 381.001526,308.033691 391.685791,294.836487 
	C399.743011,284.884155 407.919434,275.028351 416.165100,264.980499 
	C414.996368,263.224457 413.915344,261.600220 412.852966,259.491455 
M338.024048,173.818314 
	C337.012146,182.261139 336.056854,190.711212 334.976593,199.145279 
	C332.691193,216.988602 330.282562,234.816635 328.134766,252.676208 
	C327.975006,254.004486 329.168335,255.903702 330.295898,256.900177 
	C333.382568,259.628052 336.716797,262.089478 340.064575,264.501587 
	C341.421997,265.479645 343.275757,266.969482 344.552551,266.679657 
	C365.469910,261.931610 386.340576,256.974915 407.181671,251.900513 
	C408.454254,251.590637 410.044983,250.075912 410.367004,248.831726 
	C411.451996,244.640274 412.030487,240.317703 412.863739,235.707733 
	C411.563477,233.762207 410.181732,230.915222 408.107605,228.723526 
	C398.046021,218.091675 387.862244,207.572906 377.585602,197.148315 
	C373.529266,193.033615 368.934967,189.446106 364.916687,185.297852 
	C359.805756,180.021576 355.031006,174.419647 349.917358,168.464874 
	C349.574432,168.629303 349.231506,168.793747 348.141541,169.018478 
	C345.088013,170.067856 342.034515,171.117233 338.478271,172.119141 
	C338.374390,172.405624 338.270508,172.692108 338.024048,173.818314 
M328.471100,385.084595 
	C328.633484,385.426849 328.795898,385.769104 329.235046,386.733582 
	C330.212219,388.495728 331.189392,390.257874 332.125092,392.518951 
	C332.409271,392.623779 332.693481,392.728607 333.812897,392.967407 
	C337.665588,392.313385 341.503571,391.550812 345.373688,391.025177 
	C358.192352,389.284088 371.037384,387.732239 383.844910,385.914948 
	C401.814423,383.365265 419.794128,380.847534 437.685120,377.817993 
	C441.196381,377.223419 446.047607,378.792572 447.999451,373.201874 
	C457.341339,346.444122 466.922668,319.769806 476.461121,293.080933 
	C479.147125,285.565369 482.131989,278.152649 484.645142,270.581696 
	C485.403870,268.296021 486.985046,264.939026 482.546295,264.035614 
	C473.602539,262.215271 464.645844,260.458313 455.355682,258.172272 
	C454.959320,258.446625 454.562958,258.720947 453.862915,259.622833 
	C447.533997,269.142548 438.290100,275.647675 424.676819,270.970215 
	C423.376129,270.523315 420.941498,270.799622 420.195801,271.701447 
	C409.094116,285.127197 398.211609,298.733826 387.226166,312.256134 
	C382.370331,318.233337 377.351196,324.077850 372.490753,330.051392 
	C361.131012,344.012756 349.781464,357.982910 338.518158,372.022003 
	C335.176788,376.186829 332.136444,380.593109 328.471100,385.084595 
M37.471924,108.105507 
	C37.370171,108.397156 37.268414,108.688812 37.021820,109.798897 
	C35.036659,118.823708 32.991203,127.835777 31.079168,136.876053 
	C27.349319,154.511108 23.672403,172.157440 20.013353,189.807358 
	C15.167863,213.180222 10.367562,236.562454 5.532041,259.937408 
	C4.260532,266.083862 2.930739,272.218292 1.314739,279.833008 
	C4.077959,277.716339 5.772484,276.722534 7.083436,275.359711 
	C11.921384,270.330475 16.521700,265.070221 21.415276,260.097473 
	C30.408110,250.959091 39.679031,242.090958 48.549049,232.837036 
	C51.586945,229.667633 53.876278,226.389282 51.292301,220.851395 
	C49.365582,216.722153 49.328522,210.777817 50.618221,206.260925 
	C54.105549,194.047333 67.806824,187.056686 80.329895,190.867828 
	C82.113319,191.410568 85.269279,191.105301 86.287621,189.911224 
	C93.393379,181.579361 100.129669,172.930801 106.933647,164.343552 
	C116.669182,152.056427 126.373367,139.744385 136.068771,127.425545 
	C144.865692,116.248329 153.632996,105.047783 162.073456,94.290718 
	C160.119949,91.589760 159.072327,89.669205 157.569504,88.221077 
	C156.475159,87.166557 154.653687,85.947464 153.372833,86.152672 
	C144.066284,87.643692 134.807449,89.439842 125.547249,91.211243 
	C106.874207,94.783249 88.208130,98.391716 69.542648,102.003082 
	C59.019249,104.039146 48.502762,106.110954 37.471924,108.105507 
M60.657177,232.019791 
	C59.230812,233.055893 57.622211,233.913712 56.406658,235.156082 
	C45.846409,245.949554 35.328213,256.784637 24.855534,267.663177 
	C17.274189,275.538330 9.781051,283.498413 1.992751,291.689667 
	C34.563126,341.513245 67.134216,391.337921 99.937859,441.518341 
	C100.542496,440.574829 100.854446,440.229462 101.010498,439.824127 
	C107.352112,423.352966 113.630531,406.857147 120.062210,390.421295 
	C121.021805,387.969177 120.873756,386.715698 118.609383,384.902283 
	C111.393494,379.123383 107.397964,371.902191 109.955856,362.182922 
	C111.670906,355.666168 115.607765,350.932983 121.215393,347.065002 
	C119.602142,342.639557 118.085045,338.207092 116.381325,333.847565 
	C103.938538,302.008606 91.415459,270.200867 79.068810,238.324768 
	C78.049683,235.693619 76.753593,235.152740 74.134941,234.865219 
	C69.850182,234.394791 65.660118,233.061844 60.657177,232.019791 
M78.688400,92.010635 
	C79.521225,92.003990 80.376343,92.119682 81.183556,91.972542 
	C95.753281,89.316818 110.330849,86.700806 124.877693,83.924095 
	C134.898575,82.011314 144.875183,79.866562 154.709091,77.858658 
	C156.759430,62.968662 164.130692,57.281231 174.759491,55.176468 
	C184.533279,53.241016 195.176910,60.057022 199.107956,70.344620 
	C199.565643,71.542389 201.626205,72.877876 202.936203,72.870255 
	C208.698792,72.836716 214.454910,72.152466 220.220169,72.033478 
	C240.468903,71.615578 260.720276,71.321861 280.970978,71.003166 
	C303.053223,70.655647 325.136078,70.343666 347.217865,69.968674 
	C348.381317,69.948914 349.537262,69.486130 351.387543,69.076729 
	C349.614441,67.691895 348.653412,66.550598 347.429688,66.044838 
	C331.978455,59.658970 316.524475,53.276844 301.002716,47.064964 
	C266.652893,33.318020 232.226974,19.760021 197.935532,5.869595 
	C193.361740,4.016883 189.784515,4.027746 185.690048,6.742385 
	C168.467911,18.160748 151.104095,29.365116 133.824768,40.697578 
	C107.705551,57.827587 81.608009,74.990692 55.522923,92.172630 
	C53.858868,93.268723 52.381084,94.647598 50.816650,95.894920 
	C51.012230,96.400543 51.207813,96.906174 51.403393,97.411797 
	C60.206272,95.632248 69.009155,93.852699 78.688400,92.010635 
M145.529953,127.949829 
	C137.555023,137.931808 129.613541,147.940720 121.596664,157.888901 
	C111.620209,170.268723 101.552582,182.575241 91.625053,194.993942 
	C90.837624,195.978958 90.111031,198.347290 90.579193,198.795609 
	C95.460960,203.470581 95.019722,209.505295 95.073845,215.664352 
	C106.781113,219.298843 118.396851,222.901825 130.010178,226.512543 
	C132.751785,227.364929 134.400162,226.983780 136.551453,224.282501 
	C142.285614,217.082321 149.747452,213.355057 159.486359,215.622711 
	C161.384979,216.064789 163.974350,214.578110 165.917297,213.427490 
	C167.214020,212.659531 167.821350,210.810730 168.922943,209.617050 
	C178.514908,199.223267 188.282013,188.987747 197.727829,178.463531 
	C205.185699,170.154205 212.347580,161.572464 219.413208,152.925659 
	C220.388382,151.732269 220.771698,149.181717 220.203278,147.744095 
	C216.830154,139.212753 218.373672,131.580521 223.963531,124.193581 
	C218.228943,118.549400 212.582260,112.894829 206.823242,107.357071 
	C202.894455,103.579231 198.924164,99.822701 194.702576,96.388344 
	C193.781418,95.638962 191.348068,95.716805 190.231781,96.411270 
	C184.302170,100.100204 178.175797,101.115173 171.404037,99.245560 
	C170.142120,98.897171 167.887283,99.585030 167.069061,100.590675 
	C159.897232,109.405357 152.947525,118.400742 145.529953,127.949829 
M115.073555,310.327820 
	C119.069267,320.603607 122.934723,330.933899 127.190643,341.100739 
	C127.888954,342.768921 130.344467,344.861053 131.920441,344.806580 
	C139.788727,344.534668 145.473862,348.305084 150.180817,353.871857 
	C151.845901,355.841064 152.897049,356.202515 155.391861,355.369324 
	C171.388885,350.026764 187.463654,344.915009 203.544098,339.826050 
	C206.734344,338.816437 208.458740,337.383942 208.134521,333.598480 
	C207.922058,331.118011 208.561203,328.328827 209.599030,326.030060 
	C211.338623,322.176819 211.923233,319.841370 208.269073,315.847900 
	C198.234177,304.881256 189.362183,292.850006 180.039078,281.232758 
	C174.123734,273.861786 168.224670,266.477722 162.633118,259.492798 
	C154.551636,259.732025 146.443832,262.404236 139.790344,256.177032 
	C133.818863,250.588150 129.419876,244.116959 131.883072,235.996918 
	C122.118828,233.016922 112.878578,230.651489 103.992661,227.336288 
	C97.287392,224.834641 91.252808,222.199265 86.848480,230.563980 
	C86.550682,231.129547 85.570549,231.335831 84.567284,231.901016 
	C94.774635,257.939178 104.888016,283.737610 115.073555,310.327820 
M344.716919,126.682602 
	C350.813629,115.017982 356.910339,103.353363 362.646606,92.378357 
	C359.551147,87.427719 356.735748,82.924988 353.392426,77.577919 
	C343.365295,78.025467 332.456848,78.685837 321.538696,78.961060 
	C302.780731,79.433899 284.016907,79.677986 265.255188,79.996773 
	C244.827896,80.343857 224.398636,80.604568 203.975571,81.116562 
	C202.320541,81.158058 200.022339,82.463341 199.234039,83.863281 
	C198.046127,85.972961 197.416855,88.323174 200.099258,90.778450 
	C209.522644,99.403893 218.525513,108.487625 227.881592,117.189262 
	C228.915024,118.150444 231.213593,118.068611 232.891281,117.957047 
	C237.007812,117.683296 241.270050,116.160439 245.176651,116.842155 
	C255.190414,118.589615 261.147827,125.247047 263.539062,134.577789 
	C281.167023,137.150009 298.422180,139.667831 315.537140,142.165192 
	C318.366028,135.057053 322.697632,129.834061 329.619080,128.029678 
	C334.173920,126.842262 339.146729,127.258080 344.716919,126.682602 
M312.001984,338.718414 
	C313.001282,326.749786 314.062164,314.785553 314.912079,302.806335 
	C315.005066,301.495941 314.253876,299.651611 313.256104,298.827637 
	C310.368713,296.443085 307.155762,294.452759 303.507812,291.916382 
	C286.259521,302.991486 268.599487,314.330994 250.985306,325.641052 
	C256.360474,337.696777 250.590012,349.554413 240.902634,354.990906 
	C230.897293,360.605896 218.343491,356.971832 211.788406,347.863586 
	C211.016113,346.790497 208.029785,346.452728 206.444336,346.955383 
	C189.979172,352.175507 173.587021,357.626495 157.189285,363.057739 
	C156.045364,363.436615 155.018173,364.167847 153.186554,365.128784 
	C154.869400,366.026367 155.747101,366.773773 156.736145,366.975647 
	C162.161865,368.083008 167.617920,369.040680 173.057938,370.079163 
	C190.357941,373.381714 207.655960,376.694763 224.953827,380.008514 
	C245.449326,383.934814 265.933228,387.924561 286.462463,391.665497 
	C287.852875,391.918884 290.264099,390.741821 291.039520,389.503204 
	C295.198792,382.859375 300.799896,378.599243 309.073975,377.539490 
	C310.051239,364.888000 311.025726,352.272491 312.001984,338.718414 
M241.998093,183.657196 
	C241.665390,181.059402 241.305695,178.464722 241.005157,175.863220 
	C240.182510,168.742081 242.128586,159.997055 230.994019,158.968521 
	C230.555847,158.928040 230.145325,158.246216 229.738953,158.263489 
	C228.080505,158.333984 225.822891,157.930252 224.878922,158.837906 
	C220.716568,162.840134 216.901672,167.208008 213.020508,171.497360 
	C207.192963,177.937790 201.396118,184.406250 195.621109,190.893845 
	C187.842651,199.632050 180.038986,208.349487 172.405182,217.212830 
	C171.346390,218.442154 170.270081,220.878540 170.795700,222.026047 
	C172.517700,225.785370 174.975235,229.207748 177.297012,232.999756 
	C193.104980,232.999756 209.259583,232.969162 225.413818,233.030914 
	C228.003281,233.040802 229.303741,232.479675 230.354660,229.612259 
	C232.851669,222.799225 237.349960,217.502808 244.757919,215.623123 
	C244.757919,213.105865 244.957870,210.779510 244.721771,208.498276 
	C243.895691,200.516617 242.919128,192.550522 241.998093,183.657196 
M218.712021,314.991760 
	C221.790176,314.013397 224.811691,312.670410 227.965729,312.180420 
	C230.193146,311.834442 230.676254,311.239044 231.165726,309.024689 
	C234.902481,292.120270 238.930878,275.280304 242.939270,258.117432 
	C236.453308,254.958054 232.045883,250.030014 229.838547,243.105865 
	C229.533691,242.149612 227.672379,241.100952 226.523224,241.091263 
	C210.863846,240.958862 195.202423,240.947769 179.543625,241.110992 
	C178.358688,241.123352 176.820465,242.442825 176.087448,243.571136 
	C174.351608,246.242935 172.760941,249.070007 171.589844,252.023895 
	C170.932785,253.681244 170.394058,256.323578 171.235138,257.478027 
	C175.374359,263.159485 179.991348,268.493011 184.443756,273.946045 
	C195.604111,287.614532 206.766663,301.281250 218.712021,314.991760 
M318.090546,173.658432 
	C313.933350,178.067322 309.825775,182.524261 305.609528,186.875931 
	C293.724915,199.142181 281.795685,211.365204 269.692688,223.801865 
	C274.852905,228.841415 272.641144,235.091904 272.908844,240.858414 
	C273.027893,243.421860 273.575623,244.798996 276.035309,246.115280 
	C285.086914,250.959198 293.870148,256.303558 302.896759,261.196838 
	C304.080292,261.838409 306.241333,261.312653 307.687500,260.704376 
	C310.924133,259.342957 314.068207,257.712311 317.097870,255.932449 
	C318.278503,255.238846 319.681274,253.962463 319.898315,252.756332 
	C320.822540,247.621307 321.326141,242.411285 322.009613,237.232101 
	C324.318359,219.737091 326.704926,202.251892 328.895630,184.742172 
	C329.315094,181.389633 326.898621,177.826874 329.659088,174.435822 
	C329.850525,174.200668 327.025269,170.914444 325.166992,169.732086 
	C321.491699,167.393631 320.656616,171.755844 318.090546,173.658432 
M238.507538,312.921326 
	C247.758759,319.486420 245.510696,320.131897 253.240021,315.240417 
	C265.039093,307.773376 277.010651,300.552246 288.489685,292.619934 
	C292.781799,289.653992 299.483521,288.451355 299.525818,281.013580 
	C299.549561,276.833588 300.218292,272.657227 300.513123,269.399872 
	C297.088409,267.137970 294.116425,264.857544 290.861633,263.101105 
	C286.175568,260.572235 281.272034,258.448364 276.494263,256.085022 
	C275.858215,255.770386 275.427979,255.051682 274.880676,254.543533 
	C272.505646,252.338425 269.922699,252.116730 267.000916,253.484756 
	C262.214569,255.725830 257.329773,257.757874 252.560669,260.033539 
	C251.538940,260.521088 250.301208,261.543640 250.062027,262.536346 
	C246.079926,279.065643 242.241180,295.629456 238.507538,312.921326 
z"/>
<path fill="#512DA8" opacity="1.000000" stroke="none" 
	d="
M274.454102,483.000000 
	C270.660828,481.683563 267.429016,479.850067 263.965790,479.131134 
	C231.054214,472.298431 198.083679,465.749664 165.171585,458.919403 
	C147.063004,455.161377 129.035828,451.011627 110.964127,447.074310 
	C109.717789,446.802765 108.406273,446.830383 106.590492,446.672302 
	C110.375084,436.784332 114.013931,427.280518 117.650169,417.775696 
	C120.775574,409.606140 123.969307,401.461517 126.975471,393.248291 
	C127.809288,390.970184 128.839676,389.939392 131.473923,389.923584 
	C140.632446,389.868744 147.111679,385.232452 151.886948,377.618103 
	C152.704285,376.314819 155.024643,374.935089 156.394882,375.158661 
	C167.459518,376.963806 178.464645,379.135162 189.484665,381.212067 
	C203.217239,383.800110 216.941895,386.430481 230.678726,388.995728 
	C248.734772,392.367554 266.819397,395.593842 284.825989,399.210114 
	C286.442352,399.534729 288.583099,402.153290 288.759491,403.882080 
	C289.470825,410.853912 293.854919,415.139862 298.912964,418.880615 
	C300.986084,420.413849 300.928436,421.372406 300.239716,423.657074 
	C294.723969,441.953644 289.450378,460.323425 284.161072,478.687622 
	C283.849335,479.769928 284.042053,480.997589 284.000000,482.578796 
	C280.969391,483.000000 277.938812,483.000000 274.454102,483.000000 
z"/>
<path fill="#FF9800" opacity="1.000000" stroke="none" 
	d="
M456.166626,250.017593 
	C455.502319,237.157410 446.040833,227.819214 433.380402,226.884445 
	C431.881592,226.773758 429.612152,225.368240 429.194794,224.079010 
	C421.306519,199.711929 413.687592,175.257904 405.916931,150.852448 
	C401.341797,136.483109 396.600861,122.166550 391.932281,107.826988 
	C391.631958,106.904518 391.327576,105.982826 390.999054,105.070160 
	C388.673889,98.610863 387.555145,93.657173 394.221497,87.509964 
	C402.663177,79.725670 401.350983,67.604034 393.735077,58.934254 
	C407.540955,42.079594 421.405640,25.153107 435.885254,8.104021 
	C436.704102,7.973582 436.907959,7.965742 437.111877,7.957900 
	C439.405426,18.690987 441.776062,29.408306 443.975677,40.160606 
	C447.947906,59.577637 451.849670,79.009262 455.721954,98.446518 
	C459.850586,119.170502 463.879791,139.914291 468.010712,160.637833 
	C471.504852,178.166763 475.108368,195.673859 478.610809,213.201141 
	C480.140411,220.855560 481.542816,228.535446 482.994965,236.205276 
	C484.098145,242.031937 485.188629,247.860977 486.642365,253.844482 
	C487.000000,254.444443 487.000000,254.888901 487.000000,255.666672 
	C483.061218,255.651810 479.069489,255.594055 475.196075,254.887527 
	C469.353943,253.821899 463.594452,252.303238 457.298187,250.729721 
	C456.633636,250.263626 456.423645,250.108719 456.166626,250.017593 
z"/>
<path fill="#FFC107" opacity="1.000000" stroke="none" 
	d="
M428.531342,0.999999 
	C427.245117,4.213627 425.905640,7.756943 423.662506,10.583045 
	C414.596039,22.005785 405.254639,33.210388 396.006775,44.488998 
	C393.422943,47.640156 390.811951,50.769035 388.219788,53.900459 
	C376.336182,48.685051 367.952881,50.461189 358.965240,59.660397 
	C358.011505,60.636551 355.336487,60.881229 353.919464,60.315163 
	C320.861298,47.109390 287.869812,33.736801 254.858734,20.413004 
	C239.334747,14.147271 223.795654,7.919006 208.131699,1.336881 
	C281.354218,1.000000 354.708466,1.000000 428.531342,0.999999 
z"/>
<path fill="#512DA8" opacity="1.000000" stroke="none" 
	d="
M61.043640,232.056259 
	C65.660118,233.061844 69.850182,234.394791 74.134941,234.865219 
	C76.753593,235.152740 78.049683,235.693619 79.068810,238.324768 
	C91.415459,270.200867 103.938538,302.008606 116.381325,333.847565 
	C118.085045,338.207092 119.602142,342.639557 121.215393,347.065002 
	C115.607765,350.932983 111.670906,355.666168 109.955856,362.182922 
	C107.397964,371.902191 111.393494,379.123383 118.609383,384.902283 
	C120.873756,386.715698 121.021805,387.969177 120.062210,390.421295 
	C113.630531,406.857147 107.352112,423.352966 101.010498,439.824127 
	C100.854446,440.229462 100.542496,440.574829 99.937859,441.518341 
	C67.134216,391.337921 34.563126,341.513245 1.992751,291.689667 
	C9.781051,283.498413 17.274189,275.538330 24.855534,267.663177 
	C35.328213,256.784637 45.846409,245.949554 56.406658,235.156082 
	C57.622211,233.913712 59.230812,233.055893 61.043640,232.056259 
z"/>
<path fill="#F57C00" opacity="1.000000" stroke="none" 
	d="
M37.983158,108.166656 
	C48.502762,106.110954 59.019249,104.039146 69.542648,102.003082 
	C88.208130,98.391716 106.874207,94.783249 125.547249,91.211243 
	C134.807449,89.439842 144.066284,87.643692 153.372833,86.152672 
	C154.653687,85.947464 156.475159,87.166557 157.569504,88.221077 
	C159.072327,89.669205 160.119949,91.589760 162.073456,94.290718 
	C153.632996,105.047783 144.865692,116.248329 136.068771,127.425545 
	C126.373367,139.744385 116.669182,152.056427 106.933647,164.343552 
	C100.129669,172.930801 93.393379,181.579361 86.287621,189.911224 
	C85.269279,191.105301 82.113319,191.410568 80.329895,190.867828 
	C67.806824,187.056686 54.105549,194.047333 50.618221,206.260925 
	C49.328522,210.777817 49.365582,216.722153 51.292301,220.851395 
	C53.876278,226.389282 51.586945,229.667633 48.549049,232.837036 
	C39.679031,242.090958 30.408110,250.959091 21.415276,260.097473 
	C16.521700,265.070221 11.921384,270.330475 7.083436,275.359711 
	C5.772484,276.722534 4.077959,277.716339 1.314739,279.833008 
	C2.930739,272.218292 4.260532,266.083862 5.532041,259.937408 
	C10.367562,236.562454 15.167863,213.180222 20.013353,189.807358 
	C23.672403,172.157440 27.349319,154.511108 31.079168,136.876053 
	C32.991203,127.835777 35.036659,118.823708 37.269932,109.298004 
	C37.736839,108.634003 37.891880,108.423851 37.983158,108.166656 
z"/>
<path fill="#6D44C6" opacity="1.000000" stroke="none" 
	d="
M332.166595,392.019989 
	C331.189392,390.257874 330.212219,388.495728 329.107056,386.116699 
	C328.972076,385.296143 328.965118,385.092468 328.958130,384.888733 
	C332.136444,380.593109 335.176788,376.186829 338.518158,372.022003 
	C349.781464,357.982910 361.131012,344.012756 372.490753,330.051392 
	C377.351196,324.077850 382.370331,318.233337 387.226166,312.256134 
	C398.211609,298.733826 409.094116,285.127197 420.195801,271.701447 
	C420.941498,270.799622 423.376129,270.523315 424.676819,270.970215 
	C438.290100,275.647675 447.533997,269.142548 454.401276,259.250732 
	C455.191223,258.810822 455.442841,258.743011 455.694489,258.675171 
	C464.645844,260.458313 473.602539,262.215271 482.546295,264.035614 
	C486.985046,264.939026 485.403870,268.296021 484.645142,270.581696 
	C482.131989,278.152649 479.147125,285.565369 476.461121,293.080933 
	C466.922668,319.769806 457.341339,346.444122 447.999451,373.201874 
	C446.047607,378.792572 441.196381,377.223419 437.685120,377.817993 
	C419.794128,380.847534 401.814423,383.365265 383.844910,385.914948 
	C371.037384,387.732239 358.192352,389.284088 345.373688,391.025177 
	C341.503571,391.550812 337.665588,392.313385 333.303833,392.725433 
	C332.632202,392.265472 332.422821,392.110992 332.166595,392.019989 
z"/>
<path fill="#FF9800" opacity="1.000000" stroke="none" 
	d="
M78.250214,92.041893 
	C69.009155,93.852699 60.206272,95.632248 51.403393,97.411797 
	C51.207813,96.906174 51.012230,96.400543 50.816650,95.894920 
	C52.381084,94.647598 53.858868,93.268723 55.522923,92.172630 
	C81.608009,74.990692 107.705551,57.827587 133.824768,40.697578 
	C151.104095,29.365116 168.467911,18.160748 185.690048,6.742385 
	C189.784515,4.027746 193.361740,4.016883 197.935532,5.869595 
	C232.226974,19.760021 266.652893,33.318020 301.002716,47.064964 
	C316.524475,53.276844 331.978455,59.658970 347.429688,66.044838 
	C348.653412,66.550598 349.614441,67.691895 351.387543,69.076729 
	C349.537262,69.486130 348.381317,69.948914 347.217865,69.968674 
	C325.136078,70.343666 303.053223,70.655647 280.970978,71.003166 
	C260.720276,71.321861 240.468903,71.615578 220.220169,72.033478 
	C214.454910,72.152466 208.698792,72.836716 202.936203,72.870255 
	C201.626205,72.877876 199.565643,71.542389 199.107956,70.344620 
	C195.176910,60.057022 184.533279,53.241016 174.759491,55.176468 
	C164.130692,57.281231 156.759430,62.968662 154.709091,77.858658 
	C144.875183,79.866562 134.898575,82.011314 124.877693,83.924095 
	C110.330849,86.700806 95.753281,89.316818 81.183556,91.972542 
	C80.376343,92.119682 79.521225,92.003990 78.250214,92.041893 
z"/>
<path fill="#1E88E5" opacity="1.000000" stroke="none" 
	d="
M145.730957,127.646194 
	C152.947525,118.400742 159.897232,109.405357 167.069061,100.590675 
	C167.887283,99.585030 170.142120,98.897171 171.404037,99.245560 
	C178.175797,101.115173 184.302170,100.100204 190.231781,96.411270 
	C191.348068,95.716805 193.781418,95.638962 194.702576,96.388344 
	C198.924164,99.822701 202.894455,103.579231 206.823242,107.357071 
	C212.582260,112.894829 218.228943,118.549400 223.963531,124.193581 
	C218.373672,131.580521 216.830154,139.212753 220.203278,147.744095 
	C220.771698,149.181717 220.388382,151.732269 219.413208,152.925659 
	C212.347580,161.572464 205.185699,170.154205 197.727829,178.463531 
	C188.282013,188.987747 178.514908,199.223267 168.922943,209.617050 
	C167.821350,210.810730 167.214020,212.659531 165.917297,213.427490 
	C163.974350,214.578110 161.384979,216.064789 159.486359,215.622711 
	C149.747452,213.355057 142.285614,217.082321 136.551453,224.282501 
	C134.400162,226.983780 132.751785,227.364929 130.010178,226.512543 
	C118.396851,222.901825 106.781113,219.298843 95.073845,215.664352 
	C95.019722,209.505295 95.460960,203.470581 90.579193,198.795609 
	C90.111031,198.347290 90.837624,195.978958 91.625053,194.993942 
	C101.552582,182.575241 111.620209,170.268723 121.596664,157.888901 
	C129.613541,147.940720 137.555023,137.931808 145.730957,127.646194 
z"/>
<path fill="#1565C0" opacity="1.000000" stroke="none" 
	d="
M115.037476,309.931946 
	C104.888016,283.737610 94.774635,257.939178 84.567284,231.901016 
	C85.570549,231.335831 86.550682,231.129547 86.848480,230.563980 
	C91.252808,222.199265 97.287392,224.834641 103.992661,227.336288 
	C112.878578,230.651489 122.118828,233.016922 131.883072,235.996918 
	C129.419876,244.116959 133.818863,250.588150 139.790344,256.177032 
	C146.443832,262.404236 154.551636,259.732025 162.633118,259.492798 
	C168.224670,266.477722 174.123734,273.861786 180.039078,281.232758 
	C189.362183,292.850006 198.234177,304.881256 208.269073,315.847900 
	C211.923233,319.841370 211.338623,322.176819 209.599030,326.030060 
	C208.561203,328.328827 207.922058,331.118011 208.134521,333.598480 
	C208.458740,337.383942 206.734344,338.816437 203.544098,339.826050 
	C187.463654,344.915009 171.388885,350.026764 155.391861,355.369324 
	C152.897049,356.202515 151.845901,355.841064 150.180817,353.871857 
	C145.473862,348.305084 139.788727,344.534668 131.920441,344.806580 
	C130.344467,344.861053 127.888954,342.768921 127.190643,341.100739 
	C122.934723,330.933899 119.069267,320.603607 115.037476,309.931946 
z"/>
<path fill="#F57C00" opacity="1.000000" stroke="none" 
	d="
M344.324646,126.819290 
	C339.146729,127.258080 334.173920,126.842262 329.619080,128.029678 
	C322.697632,129.834061 318.366028,135.057053 315.537140,142.165192 
	C298.422180,139.667831 281.167023,137.150009 263.539062,134.577789 
	C261.147827,125.247047 255.190414,118.589615 245.176651,116.842155 
	C241.270050,116.160439 237.007812,117.683296 232.891281,117.957047 
	C231.213593,118.068611 228.915024,118.150444 227.881592,117.189262 
	C218.525513,108.487625 209.522644,99.403893 200.099258,90.778450 
	C197.416855,88.323174 198.046127,85.972961 199.234039,83.863281 
	C200.022339,82.463341 202.320541,81.158058 203.975571,81.116562 
	C224.398636,80.604568 244.827896,80.343857 265.255188,79.996773 
	C284.016907,79.677986 302.780731,79.433899 321.538696,78.961060 
	C332.456848,78.685837 343.365295,78.025467 353.392426,77.577919 
	C356.735748,82.924988 359.551147,87.427719 362.646606,92.378357 
	C356.910339,103.353363 350.813629,115.017982 344.324646,126.819290 
z"/>
<path fill="#6D44C6" opacity="1.000000" stroke="none" 
	d="
M312.001099,339.187683 
	C311.025726,352.272491 310.051239,364.888000 309.073975,377.539490 
	C300.799896,378.599243 295.198792,382.859375 291.039520,389.503204 
	C290.264099,390.741821 287.852875,391.918884 286.462463,391.665497 
	C265.933228,387.924561 245.449326,383.934814 224.953827,380.008514 
	C207.655960,376.694763 190.357941,373.381714 173.057938,370.079163 
	C167.617920,369.040680 162.161865,368.083008 156.736145,366.975647 
	C155.747101,366.773773 154.869400,366.026367 153.186554,365.128784 
	C155.018173,364.167847 156.045364,363.436615 157.189285,363.057739 
	C173.587021,357.626495 189.979172,352.175507 206.444336,346.955383 
	C208.029785,346.452728 211.016113,346.790497 211.788406,347.863586 
	C218.343491,356.971832 230.897293,360.605896 240.902634,354.990906 
	C250.590012,349.554413 256.360474,337.696777 250.985306,325.641052 
	C268.599487,314.330994 286.259521,302.991486 303.507812,291.916382 
	C307.155762,294.452759 310.368713,296.443085 313.256104,298.827637 
	C314.253876,299.651611 315.005066,301.495941 314.912079,302.806335 
	C314.062164,314.785553 313.001282,326.749786 312.001099,339.187683 
z"/>
<path fill="#1E88E5" opacity="1.000000" stroke="none" 
	d="
M350.111328,168.958099 
	C355.031006,174.419647 359.805756,180.021576 364.916687,185.297852 
	C368.934967,189.446106 373.529266,193.033615 377.585602,197.148315 
	C387.862244,207.572906 398.046021,218.091675 408.107605,228.723526 
	C410.181732,230.915222 411.563477,233.762207 412.863739,235.707733 
	C412.030487,240.317703 411.451996,244.640274 410.367004,248.831726 
	C410.044983,250.075912 408.454254,251.590637 407.181671,251.900513 
	C386.340576,256.974915 365.469910,261.931610 344.552551,266.679657 
	C343.275757,266.969482 341.421997,265.479645 340.064575,264.501587 
	C336.716797,262.089478 333.382568,259.628052 330.295898,256.900177 
	C329.168335,255.903702 327.975006,254.004486 328.134766,252.676208 
	C330.282562,234.816635 332.691193,216.988602 334.976593,199.145279 
	C336.056854,190.711212 337.012146,182.261139 338.270569,173.306931 
	C338.735291,172.632828 338.889954,172.423187 338.980988,172.166626 
	C342.034515,171.117233 345.088013,170.067856 348.820892,168.999359 
	C349.703949,168.972870 349.907623,168.965485 350.111328,168.958099 
z"/>
<path fill="#815FE0" opacity="1.000000" stroke="none" 
	d="
M412.834320,259.975952 
	C413.915344,261.600220 414.996368,263.224457 416.165100,264.980499 
	C407.919434,275.028351 399.743011,284.884155 391.685791,294.836487 
	C381.001526,308.033691 370.467010,321.352325 359.760773,334.531525 
	C351.565857,344.619385 343.200897,354.569000 334.919006,364.586304 
	C331.774963,368.389160 328.154633,371.913971 325.663849,376.107483 
	C323.330688,380.035614 320.977386,380.646912 316.743500,378.102692 
	C318.905731,352.554382 321.097839,326.653229 323.323242,300.358490 
	C329.836334,300.176575 335.048492,297.073944 339.306793,292.192230 
	C343.628387,287.238007 345.363678,281.406250 345.026215,274.301605 
	C367.068542,269.218903 389.139526,264.129639 411.709473,259.277252 
	C412.370361,259.731354 412.578979,259.885284 412.834320,259.975952 
z"/>
<path fill="#F57C00" opacity="1.000000" stroke="none" 
	d="
M412.115479,196.958496 
	C412.415558,198.046539 412.715668,199.134598 412.775513,200.806595 
	C414.590302,208.130905 416.632996,214.875153 418.750763,221.595749 
	C418.826508,221.836136 419.643799,221.842880 420.115479,221.958496 
	C420.606628,224.784576 421.097778,227.610657 421.588898,230.436737 
	C421.185425,230.630356 420.781921,230.823975 420.378448,231.017609 
	C416.584747,227.006775 412.781067,223.005310 409.005524,218.977448 
	C408.223907,218.143539 407.609161,217.150909 406.812561,216.333694 
	C393.017578,202.180908 379.150330,188.097977 365.440247,173.863571 
	C362.274170,170.576385 359.502045,166.876633 356.851074,163.151535 
	C356.245361,162.300385 356.697205,160.510422 357.006317,159.235977 
	C357.536133,157.051697 358.337128,154.933228 359.446747,152.307556 
	C361.329285,149.681366 362.283447,147.595703 359.166626,146.000900 
	C357.205475,141.927307 355.244324,137.853699 353.139954,133.105682 
	C352.627502,131.605698 352.258209,130.780121 351.888947,129.954559 
	C357.681732,118.728867 363.474518,107.503174 369.883728,96.129730 
	C370.704163,95.973923 370.908142,95.965851 371.112152,95.957794 
	C372.094299,95.971840 373.076447,95.995819 374.058624,95.998344 
	C381.090332,96.016426 381.090332,96.015038 381.775330,103.765907 
	C383.590332,111.130936 385.633026,117.875175 387.750763,124.595749 
	C387.826508,124.836136 388.643799,124.842865 389.115479,124.958496 
	C389.415558,126.046539 389.715637,127.134583 389.775482,128.806595 
	C390.969482,134.542831 392.332458,139.717056 393.907776,144.825806 
	C394.171875,145.682190 395.356323,146.254776 396.115479,146.958496 
	C396.415588,148.046539 396.715668,149.134598 396.775513,150.806595 
	C398.590332,158.130905 400.632996,164.875153 402.750763,171.595749 
	C402.826508,171.836151 403.643799,171.842880 404.115479,171.958496 
	C404.415558,173.046539 404.715668,174.134598 404.775513,175.806595 
	C406.590332,183.130905 408.633026,189.875153 410.750763,196.595749 
	C410.826508,196.836136 411.643799,196.842865 412.115479,196.958496 
z"/>
<path fill="#1E88E5" opacity="1.000000" stroke="none" 
	d="
M241.998917,184.117859 
	C242.919128,192.550522 243.895691,200.516617 244.721771,208.498276 
	C244.957870,210.779510 244.757919,213.105865 244.757919,215.623123 
	C237.349960,217.502808 232.851669,222.799225 230.354660,229.612259 
	C229.303741,232.479675 228.003281,233.040802 225.413818,233.030914 
	C209.259583,232.969162 193.104980,232.999756 177.297012,232.999756 
	C174.975235,229.207748 172.517700,225.785370 170.795700,222.026047 
	C170.270081,220.878540 171.346390,218.442154 172.405182,217.212830 
	C180.038986,208.349487 187.842651,199.632050 195.621109,190.893845 
	C201.396118,184.406250 207.192963,177.937790 213.020508,171.497360 
	C216.901672,167.208008 220.716568,162.840134 224.878922,158.837906 
	C225.822891,157.930252 228.080505,158.333984 229.738953,158.263489 
	C230.145325,158.246216 230.555847,158.928040 230.994019,158.968521 
	C242.128586,159.997055 240.182510,168.742081 241.005157,175.863220 
	C241.305695,178.464722 241.665390,181.059402 241.998917,184.117859 
z"/>
<path fill="#512DA8" opacity="1.000000" stroke="none" 
	d="
M294.878906,470.963379 
	C299.286133,455.050476 303.693329,439.137573 308.076141,423.312775 
	C321.385284,422.676453 330.266754,417.065552 333.295288,403.695831 
	C333.633789,402.201477 336.133118,400.386932 337.838776,400.135742 
	C357.388977,397.256042 376.987335,394.705505 396.555725,391.945923 
	C404.776215,390.786713 412.956177,389.339905 421.568665,388.450928 
	C421.335571,389.742493 420.862488,390.870270 420.014496,391.431152 
	C410.334686,397.833588 400.588654,404.135742 390.877686,410.491211 
	C361.047485,430.014038 331.243805,449.577637 301.352783,469.006866 
	C299.537750,470.186646 297.052368,470.335083 294.878906,470.963379 
z"/>
<path fill="#1565C0" opacity="1.000000" stroke="none" 
	d="
M218.320175,314.970215 
	C206.766663,301.281250 195.604111,287.614532 184.443756,273.946045 
	C179.991348,268.493011 175.374359,263.159485 171.235138,257.478027 
	C170.394058,256.323578 170.932785,253.681244 171.589844,252.023895 
	C172.760941,249.070007 174.351608,246.242935 176.087448,243.571136 
	C176.820465,242.442825 178.358688,241.123352 179.543625,241.110992 
	C195.202423,240.947769 210.863846,240.958862 226.523224,241.091263 
	C227.672379,241.100952 229.533691,242.149612 229.838547,243.105865 
	C232.045883,250.030014 236.453308,254.958054 242.939270,258.117432 
	C238.930878,275.280304 234.902481,292.120270 231.165726,309.024689 
	C230.676254,311.239044 230.193146,311.834442 227.965729,312.180420 
	C224.811691,312.670410 221.790176,314.013397 218.320175,314.970215 
z"/>
<path fill="#1E88E5" opacity="1.000000" stroke="none" 
	d="
M318.293274,173.353516 
	C320.656616,171.755844 321.491699,167.393631 325.166992,169.732086 
	C327.025269,170.914444 329.850525,174.200668 329.659088,174.435822 
	C326.898621,177.826874 329.315094,181.389633 328.895630,184.742172 
	C326.704926,202.251892 324.318359,219.737091 322.009613,237.232101 
	C321.326141,242.411285 320.822540,247.621307 319.898315,252.756332 
	C319.681274,253.962463 318.278503,255.238846 317.097870,255.932449 
	C314.068207,257.712311 310.924133,259.342957 307.687500,260.704376 
	C306.241333,261.312653 304.080292,261.838409 302.896759,261.196838 
	C293.870148,256.303558 285.086914,250.959198 276.035309,246.115280 
	C273.575623,244.798996 273.027893,243.421860 272.908844,240.858414 
	C272.641144,235.091904 274.852905,228.841415 269.692688,223.801865 
	C281.795685,211.365204 293.724915,199.142181 305.609528,186.875931 
	C309.825775,182.524261 313.933350,178.067322 318.293274,173.353516 
z"/>
<path fill="#42A5F5" opacity="1.000000" stroke="none" 
	d="
M248.166199,166.001495 
	C246.497498,162.533722 247.112457,160.043365 251.784729,159.248123 
	C257.275879,160.171341 264.021057,153.911026 263.636292,148.961014 
	C263.602966,148.532425 262.713898,148.170349 262.222351,147.777374 
	C262.209106,147.598801 262.195862,147.420242 262.794128,147.094131 
	C267.300018,146.962997 271.253021,146.550400 275.077942,147.073792 
	C288.114746,148.857727 301.106415,150.971390 314.115326,152.959198 
	C314.417847,154.048172 314.720367,155.137146 314.787201,156.790070 
	C315.397491,158.552170 316.243500,159.750305 317.089508,160.948441 
	C317.089508,160.948441 317.028168,161.002747 317.026733,161.259979 
	C317.030670,161.714859 317.036041,161.912506 317.041382,162.110168 
	C316.624054,163.315826 316.529572,164.823105 315.733643,165.675003 
	C312.258148,169.394806 308.539093,172.885361 304.980957,176.529953 
	C292.794159,189.012909 280.495483,201.392151 268.565338,214.116501 
	C265.390594,217.502579 262.795868,218.267715 259.091797,215.612442 
	C258.474884,215.170212 257.540375,215.171036 256.371063,214.545105 
	C255.522614,212.752396 254.762482,211.408249 254.635620,210.006790 
	C253.683456,199.487747 252.874680,188.955841 251.978180,178.431595 
	C251.720581,175.407379 251.556488,172.341354 250.880432,169.402390 
	C250.587311,168.128067 249.107178,167.126801 248.166199,166.001495 
z"/>
<path fill="#1565C0" opacity="1.000000" stroke="none" 
	d="
M238.438980,312.553467 
	C242.241180,295.629456 246.079926,279.065643 250.062027,262.536346 
	C250.301208,261.543640 251.538940,260.521088 252.560669,260.033539 
	C257.329773,257.757874 262.214569,255.725830 267.000916,253.484756 
	C269.922699,252.116730 272.505646,252.338425 274.880676,254.543533 
	C275.427979,255.051682 275.858215,255.770386 276.494263,256.085022 
	C281.272034,258.448364 286.175568,260.572235 290.861633,263.101105 
	C294.116425,264.857544 297.088409,267.137970 300.513123,269.399872 
	C300.218292,272.657227 299.549561,276.833588 299.525818,281.013580 
	C299.483521,288.451355 292.781799,289.653992 288.489685,292.619934 
	C277.010651,300.552246 265.039093,307.773376 253.240021,315.240417 
	C245.510696,320.131897 247.758759,319.486420 238.438980,312.553467 
z"/>
<path fill="#512DA8" opacity="1.000000" stroke="none" 
	d="
M294.553528,471.152191 
	C297.052368,470.335083 299.537750,470.186646 301.352783,469.006866 
	C331.243805,449.577637 361.047485,430.014038 390.877686,410.491211 
	C400.588654,404.135742 410.334686,397.833588 420.014496,391.431152 
	C420.862488,390.870270 421.335571,389.742493 421.991150,388.522339 
	C425.756683,387.574951 429.513885,386.983276 433.271057,386.391602 
	C433.518494,386.841431 433.765930,387.291290 434.013367,387.741119 
	C430.940735,390.039642 427.981171,392.510986 424.776550,394.607788 
	C407.783112,405.727051 390.696716,416.704285 373.701752,427.821259 
	C348.407623,444.367004 323.170715,461.000214 297.872833,477.540222 
	C296.693939,478.311005 295.158661,478.536621 293.393799,478.759399 
	C292.984436,478.297272 292.970642,478.091827 292.956848,477.886414 
	C293.380615,475.704590 293.804382,473.522797 294.553528,471.152191 
z"/>
<path fill="#42A5F5" opacity="1.000000" stroke="none" 
	d="
M314.066040,152.561447 
	C301.106415,150.971390 288.114746,148.857727 275.077942,147.073792 
	C271.253021,146.550400 267.300018,146.962997 262.950165,146.875488 
	C262.582886,143.680145 264.182434,142.537094 267.233856,142.984024 
	C274.982849,144.119003 282.747070,145.149902 290.499268,146.263672 
	C296.628204,147.144257 302.783447,147.908554 308.851349,149.107407 
	C310.702179,149.473083 312.302002,151.109329 314.066040,152.561447 
z"/>
<path fill="#42A5F5" opacity="1.000000" stroke="none" 
	d="
M248.100311,166.442688 
	C249.107178,167.126801 250.587311,168.128067 250.880432,169.402390 
	C251.556488,172.341354 251.720581,175.407379 251.978180,178.431595 
	C252.874680,188.955841 253.683456,199.487747 254.635620,210.006790 
	C254.762482,211.408249 255.522614,212.752396 255.995148,214.478668 
	C251.476074,214.074692 252.570282,209.885071 252.216187,207.391068 
	C250.470871,195.097427 249.336105,182.716721 248.021057,170.363007 
	C247.899017,169.216751 248.024078,168.044205 248.100311,166.442688 
z"/>
<path fill="#42A5F5" opacity="1.000000" stroke="none" 
	d="
M262.097107,148.060608 
	C262.713898,148.170349 263.602966,148.532425 263.636292,148.961014 
	C264.021057,153.911026 257.275879,160.171341 252.182251,159.185913 
	C255.290237,155.378174 258.631042,151.860992 262.097107,148.060608 
z"/>
<path fill="#F57C00" opacity="1.000000" stroke="none" 
	d="
M389.065125,124.564499 
	C388.643799,124.842865 387.826508,124.836136 387.750763,124.595749 
	C385.633026,117.875175 383.590332,111.130936 381.821838,104.171387 
	C384.410553,110.691612 386.712677,117.431061 389.065125,124.564499 
z"/>
<path fill="#F57C00" opacity="1.000000" stroke="none" 
	d="
M404.065125,171.564514 
	C403.643799,171.842880 402.826508,171.836151 402.750763,171.595749 
	C400.632996,164.875153 398.590332,158.130905 396.821838,151.171387 
	C399.410553,157.691650 401.712677,164.431091 404.065125,171.564514 
z"/>
<path fill="#F57C00" opacity="1.000000" stroke="none" 
	d="
M412.065155,196.564514 
	C411.643799,196.842865 410.826508,196.836136 410.750763,196.595749 
	C408.633026,189.875153 406.590332,183.130905 404.821869,176.171387 
	C407.410583,182.691635 409.712708,189.431076 412.065155,196.564514 
z"/>
<path fill="#F57C00" opacity="1.000000" stroke="none" 
	d="
M420.065125,221.564514 
	C419.643799,221.842880 418.826508,221.836136 418.750763,221.595749 
	C416.632996,214.875153 414.590302,208.130905 412.821838,201.171387 
	C415.410553,207.691650 417.712677,214.431091 420.065125,221.564514 
z"/>
<path fill="#F57C00" opacity="1.000000" stroke="none" 
	d="
M396.065125,146.564514 
	C395.356323,146.254776 394.171875,145.682190 393.907776,144.825806 
	C392.332458,139.717056 390.969482,134.542831 389.821838,129.171387 
	C392.077209,134.691666 394.045990,140.431107 396.065125,146.564514 
z"/>
<path fill="#F57C00" opacity="1.000000" stroke="none" 
	d="
M359.095306,146.424988 
	C362.283447,147.595703 361.329285,149.681366 359.517944,151.913315 
	C359.119080,150.282089 359.071533,148.565582 359.095306,146.424988 
z"/>
<path fill="#42A5F5" opacity="1.000000" stroke="none" 
	d="
M317.043945,160.616394 
	C316.243500,159.750305 315.397491,158.552170 314.828613,157.152222 
	C315.736603,158.061737 316.367523,159.173035 317.043945,160.616394 
z"/>
<path fill="#F57C00" opacity="1.000000" stroke="none" 
	d="
M351.597412,130.093079 
	C352.258209,130.780121 352.627502,131.605698 353.000183,132.796600 
	C352.437683,132.185165 351.871796,131.208374 351.597412,130.093079 
z"/>
<path fill="#512DA8" opacity="1.000000" stroke="none" 
	d="
M292.692322,477.994354 
	C292.970642,478.091827 292.984436,478.297272 293.018311,478.810852 
	C292.831116,479.293274 292.623779,479.467499 292.416473,479.641754 
	C292.420258,479.128601 292.424042,478.615448 292.692322,477.994354 
z"/>
<path fill="#6D44C6" opacity="1.000000" stroke="none" 
	d="
M455.525085,258.423706 
	C455.442841,258.743011 455.191223,258.810822 454.553101,258.936951 
	C454.562958,258.720947 454.959320,258.446625 455.525085,258.423706 
z"/>
<path fill="#FF9800" opacity="1.000000" stroke="none" 
	d="
M456.138489,250.271698 
	C456.423645,250.108719 456.633636,250.263626 456.888184,250.657837 
	C456.690002,250.730835 456.400177,250.628326 456.138489,250.271698 
z"/>
<path fill="#815FE0" opacity="1.000000" stroke="none" 
	d="
M412.843628,259.733704 
	C412.578979,259.885284 412.370361,259.731354 412.117249,259.339905 
	C412.396393,259.033936 412.672028,259.142517 412.843628,259.733704 
z"/>
<path fill="#1E88E5" opacity="1.000000" stroke="none" 
	d="
M338.729614,172.142883 
	C338.889954,172.423187 338.735291,172.632828 338.341858,172.887054 
	C338.270508,172.692108 338.374390,172.405624 338.729614,172.142883 
z"/>
<path fill="#1E88E5" opacity="1.000000" stroke="none" 
	d="
M350.014343,168.711487 
	C349.907623,168.965485 349.703949,168.972870 349.194397,168.969223 
	C349.231506,168.793747 349.574432,168.629303 350.014343,168.711487 
z"/>
<path fill="#42A5F5" opacity="1.000000" stroke="none" 
	d="
M317.272186,162.011719 
	C317.036041,161.912506 317.030670,161.714859 317.037628,161.220490 
	C317.200958,161.253586 317.351990,161.583420 317.272186,162.011719 
z"/>
<path fill="#6D44C6" opacity="1.000000" stroke="none" 
	d="
M328.714630,384.986694 
	C328.965118,385.092468 328.972076,385.296143 328.968658,385.805603 
	C328.795898,385.769104 328.633484,385.426849 328.714630,384.986694 
z"/>
<path fill="#F57C00" opacity="1.000000" stroke="none" 
	d="
M37.727539,108.136078 
	C37.891880,108.423851 37.736839,108.634003 37.342354,108.888794 
	C37.268414,108.688812 37.370171,108.397156 37.727539,108.136078 
z"/>
<path fill="#F57C00" opacity="1.000000" stroke="none" 
	d="
M371.016785,95.705292 
	C370.908142,95.965851 370.704163,95.973923 370.193970,95.969940 
	C370.232300,95.789536 370.576843,95.621170 371.016785,95.705292 
z"/>
<path fill="#6D44C6" opacity="1.000000" stroke="none" 
	d="
M332.145844,392.269470 
	C332.422821,392.110992 332.632202,392.265472 332.886200,392.658447 
	C332.693481,392.728607 332.409271,392.623779 332.145844,392.269470 
z"/>
<path fill="#FF9800" opacity="1.000000" stroke="none" 
	d="
M437.015930,7.707447 
	C436.907959,7.965742 436.704102,7.973582 436.194153,7.969715 
	C436.232056,7.791002 436.576019,7.623997 437.015930,7.707447 
z"/>
</svg>